# xmcd
#
# Track frame offsets:
#	150
#	17580
#	31779
#	52997
#	69263
#	88614
#	103855
#	120936
#	138361
#	152502
#	174039
#	194474
#
# Disc length: 2832 seconds
#
# Revision: 0
# Processed by: cddbd v1.5.2PL0 Copyright (c) Steve Scherf et al.
# Submitted via: audiograbber 1.83.01
#
DISCID=860b0e0c
DTITLE=Lady Antebellum - Lady Antebellum
DYEAR=2008
DGENRE=Country
TTITLE0=Love don't live here
TTITLE1=Lookin' for a good time
TTITLE2=All we'd need
TTITLE3=Long gone
TTITLE4=I run to you
TTITLE5=Love's lookin' good on you
TTITLE6=Home is where the heart is
TTITLE7=Things people say
TTITLE8=Slow down sister
TTITLE9=Can't take my eyes off you
TTITLE10=One day you will
TTITLE11=Emily
EXTD=
EXTT0=
EXTT1=
EXTT2=
EXTT3=
EXTT4=
EXTT5=
EXTT6=
EXTT7=
EXTT8=
EXTT9=
EXTT10=
EXTT11=
PLAYORDER=
